<?xml version="1.0" encoding="UTF-8" standalone="no"?><!-- Generator: Gravit.io --><svg xmlns="http://www.w3.org/2000/svg" xmlns:xlink="http://www.w3.org/1999/xlink" style="isolation:isolate" viewBox="0 0 545 200" width="545pt" height="200pt"><defs><clipPath id="_clipPath_ZOZtrEAF9JAjVWyBOzEs1gUUURip9moE"><rect width="545" height="200"/></clipPath></defs><g clip-path="url(#_clipPath_ZOZtrEAF9JAjVWyBOzEs1gUUURip9moE)"><g><text transform="matrix(1.372,0,0,1.372,148.516,156.292)" style="font-family:'Roboto';font-weight:500;font-size:120px;font-style:normal;fill:#311b49;stroke:none;">Prep.</text><path d=" M 47.329 196.5 L 91.593 184.783 L 76.296 127.826 L 95.173 121.968 Q 130.486 110.17 137.809 75.752 Q 141.389 53.132 132.602 36.695 C 127.538 27.223 116.247 12.285 99.73 7.078 C 83.212 1.87 69.217 2.765 55.466 7.078 L 15.759 17.818 C 14.783 18.469 9.168 19.69 6.32 24.653 C 3.923 28.831 3.31 31.651 4.693 36.695 L 47.329 196.5 Z " fill="rgb(49,27,73)" vector-effect="non-scaling-stroke" stroke-width="1" stroke="rgb(0,0,0)" stroke-linejoin="miter" stroke-linecap="square" stroke-miterlimit="3"/><clipPath id="_clipPath_SaCtyzytzcpVVLWXtQQKr0qGE9lcw5Ae"><path d=" M 47.329 196.5 L 91.593 184.783 L 76.296 127.826 L 95.173 121.968 Q 130.486 110.17 137.809 75.752 Q 141.389 53.132 132.602 36.695 C 127.538 27.223 116.247 12.285 99.73 7.078 C 83.212 1.87 69.217 2.765 55.466 7.078 L 15.759 17.818 C 14.783 18.469 9.168 19.69 6.32 24.653 C 3.923 28.831 3.31 31.651 4.693 36.695 L 47.329 196.5 Z " fill="rgb(49,27,73)" vector-effect="non-scaling-stroke" stroke-width="1" stroke="rgb(0,0,0)" stroke-linejoin="miter" stroke-linecap="square" stroke-miterlimit="3"/></clipPath><g clip-path="url(#_clipPath_SaCtyzytzcpVVLWXtQQKr0qGE9lcw5Ae)"><path d=" M 115.726 77.454 L 84.727 69.601 C 83.077 71.943 80.352 73.473 77.272 73.473 C 72.243 73.473 68.159 69.39 68.159 64.36 C 68.159 61.522 69.459 58.986 71.495 57.314 L 65.105 40.807 L 65.124 40.8 C 64.982 40.435 64.905 40.039 64.905 39.625 C 64.905 37.828 66.363 36.37 68.159 36.37 C 69.67 36.37 70.942 37.401 71.308 38.798 L 77.679 55.256 C 82.162 55.453 85.809 58.896 86.323 63.291 L 117.787 71.261 L 117.779 71.294 C 119.189 71.651 120.234 72.929 120.234 74.45 C 120.234 76.246 118.776 77.704 116.979 77.704 C 116.535 77.704 116.112 77.615 115.726 77.454 Z " fill="rgb(255,255,255)"/></g><path d=" M 47.329 196.5 L 91.593 184.783 L 76.296 127.826 L 95.173 121.968 Q 130.486 110.17 137.809 75.752 Q 141.389 53.132 132.602 36.695 C 127.538 27.223 116.247 12.285 99.73 7.078 C 83.212 1.87 69.217 2.765 55.466 7.078 L 15.759 17.818 C 14.783 18.469 9.168 19.69 6.32 24.653 C 3.923 28.831 3.31 31.651 4.693 36.695 L 47.329 196.5 Z " fill="transparent" vector-effect="non-scaling-stroke" stroke-width="1" stroke="rgb(0,0,0)" stroke-linejoin="miter" stroke-linecap="square" stroke-miterlimit="3"/></g></g></svg>