<?xml version="1.0" encoding="UTF-8" standalone="no"?><!-- Generator: Gravit.io --><svg xmlns="http://www.w3.org/2000/svg" xmlns:xlink="http://www.w3.org/1999/xlink" style="isolation:isolate" viewBox="0 0 545 200" width="545pt" height="200pt"><g><path d=" M 204.968 112.786 L 180.763 112.786 L 180.763 156.292 L 160.417 156.292 L 160.417 39.205 L 205.209 39.205 L 205.209 39.205 Q 224.831 39.205 236.371 49.418 L 236.371 49.418 L 236.371 49.418 Q 247.911 59.631 247.911 76.438 L 247.911 76.438 L 247.911 76.438 Q 247.911 93.647 236.612 103.217 L 236.612 103.217 L 236.612 103.217 Q 225.314 112.786 204.968 112.786 L 204.968 112.786 L 204.968 112.786 Z  M 180.763 55.61 L 180.763 96.462 L 205.209 96.462 L 205.209 96.462 Q 216.066 96.462 221.775 91.355 L 221.775 91.355 L 221.775 91.355 Q 227.485 86.249 227.485 76.599 L 227.485 76.599 L 227.485 76.599 Q 227.485 67.11 221.695 61.44 L 221.695 61.44 L 221.695 61.44 Q 215.905 55.771 205.772 55.61 L 205.772 55.61 L 180.763 55.61 L 180.763 55.61 Z  M 309.429 68.798 L 309.349 87.133 L 309.349 87.133 Q 305.489 86.49 301.388 86.49 L 301.388 86.49 L 301.388 86.49 Q 287.958 86.49 283.294 96.783 L 283.294 96.783 L 283.294 156.292 L 263.753 156.292 L 263.753 69.281 L 282.409 69.281 L 282.892 79.011 L 282.892 79.011 Q 289.969 67.672 302.514 67.672 L 302.514 67.672 L 302.514 67.672 Q 306.695 67.672 309.429 68.798 L 309.429 68.798 L 309.429 68.798 Z  M 358.484 157.9 L 358.484 157.9 L 358.484 157.9 Q 339.907 157.9 328.368 146.199 L 328.368 146.199 L 328.368 146.199 Q 316.828 134.499 316.828 115.038 L 316.828 115.038 L 316.828 112.625 L 316.828 112.625 Q 316.828 99.598 321.854 89.345 L 321.854 89.345 L 321.854 89.345 Q 326.88 79.092 335.967 73.382 L 335.967 73.382 L 335.967 73.382 Q 345.054 67.672 356.232 67.672 L 356.232 67.672 L 356.232 67.672 Q 374.004 67.672 383.694 79.011 L 383.694 79.011 L 383.694 79.011 Q 393.384 90.35 393.384 111.097 L 393.384 111.097 L 393.384 118.978 L 336.53 118.978 L 336.53 118.978 Q 337.414 129.754 343.727 136.027 L 343.727 136.027 L 343.727 136.027 Q 350.04 142.299 359.609 142.299 L 359.609 142.299 L 359.609 142.299 Q 373.039 142.299 381.483 131.443 L 381.483 131.443 L 392.017 141.495 L 392.017 141.495 Q 386.79 149.295 378.065 153.598 L 378.065 153.598 L 378.065 153.598 Q 369.34 157.9 358.484 157.9 Z  M 356.152 83.354 L 356.152 83.354 L 356.152 83.354 Q 348.11 83.354 343.164 88.983 L 343.164 88.983 L 343.164 88.983 Q 338.219 94.612 336.852 104.664 L 336.852 104.664 L 374.084 104.664 L 374.084 103.217 L 374.084 103.217 Q 373.441 93.406 368.857 88.38 L 368.857 88.38 L 368.857 88.38 Q 364.274 83.354 356.152 83.354 Z  M 484.738 112.465 L 484.738 113.671 L 484.738 113.671 Q 484.738 133.855 475.57 145.878 L 475.57 145.878 L 475.57 145.878 Q 466.403 157.9 450.963 157.9 L 450.963 157.9 L 450.963 157.9 Q 436.649 157.9 428.044 148.491 L 428.044 148.491 L 428.044 189.745 L 408.503 189.745 L 408.503 69.281 L 426.516 69.281 L 427.32 78.127 L 427.32 78.127 Q 435.925 67.672 450.722 67.672 L 450.722 67.672 L 450.722 67.672 Q 466.644 67.672 475.691 79.534 L 475.691 79.534 L 475.691 79.534 Q 484.738 91.395 484.738 112.465 L 484.738 112.465 L 484.738 112.465 Z  M 465.277 111.982 L 465.277 111.982 L 465.277 111.982 Q 465.277 98.955 460.09 91.315 L 460.09 91.315 L 460.09 91.315 Q 454.903 83.675 445.253 83.675 L 445.253 83.675 L 445.253 83.675 Q 433.271 83.675 428.044 93.567 L 428.044 93.567 L 428.044 132.167 L 428.044 132.167 Q 433.352 142.299 445.414 142.299 L 445.414 142.299 L 445.414 142.299 Q 454.742 142.299 460.01 134.78 L 460.01 134.78 L 460.01 134.78 Q 465.277 127.261 465.277 111.982 Z  M 513.447 135.705 L 513.447 135.705 L 513.447 135.705 Q 518.915 135.705 521.89 138.801 L 521.89 138.801 L 521.89 138.801 Q 524.866 141.897 524.866 146.561 L 524.866 146.561 L 524.866 146.561 Q 524.866 151.145 521.89 154.161 L 521.89 154.161 L 521.89 154.161 Q 518.915 157.176 513.447 157.176 L 513.447 157.176 L 513.447 157.176 Q 508.219 157.176 505.164 154.201 L 505.164 154.201 L 505.164 154.201 Q 502.108 151.225 502.108 146.561 L 502.108 146.561 L 502.108 146.561 Q 502.108 141.897 505.083 138.801 L 505.083 138.801 L 505.083 138.801 Q 508.059 135.705 513.447 135.705 Z " fill="rgb(49,27,73)"/><path d=" M 47.329 196.5 L 91.593 184.783 L 76.296 127.826 L 95.173 121.968 Q 130.486 110.17 137.809 75.752 Q 141.389 53.132 132.602 36.695 C 127.538 27.223 116.247 12.285 99.73 7.078 C 83.212 1.87 69.217 2.765 55.466 7.078 L 15.759 17.818 C 14.783 18.469 9.168 19.69 6.32 24.653 C 3.923 28.831 3.31 31.651 4.693 36.695 L 47.329 196.5 Z " fill="rgb(49,27,73)" vector-effect="non-scaling-stroke" stroke-width="1" stroke="rgb(0,0,0)" stroke-linejoin="miter" stroke-linecap="square" stroke-miterlimit="3"/><clipPath id="_clipPath_RTOoGB4QTZaZiPaVgkofu1VgwIBcsClB"><path d=" M 47.329 196.5 L 91.593 184.783 L 76.296 127.826 L 95.173 121.968 Q 130.486 110.17 137.809 75.752 Q 141.389 53.132 132.602 36.695 C 127.538 27.223 116.247 12.285 99.73 7.078 C 83.212 1.87 69.217 2.765 55.466 7.078 L 15.759 17.818 C 14.783 18.469 9.168 19.69 6.32 24.653 C 3.923 28.831 3.31 31.651 4.693 36.695 L 47.329 196.5 Z " fill="rgb(49,27,73)" vector-effect="non-scaling-stroke" stroke-width="1" stroke="rgb(0,0,0)" stroke-linejoin="miter" stroke-linecap="square" stroke-miterlimit="3"/></clipPath><g clip-path="url(#_clipPath_RTOoGB4QTZaZiPaVgkofu1VgwIBcsClB)"><path d=" M 115.726 77.454 L 84.727 69.601 C 83.077 71.943 80.352 73.473 77.272 73.473 C 72.243 73.473 68.159 69.39 68.159 64.36 C 68.159 61.522 69.459 58.986 71.495 57.314 L 65.105 40.807 L 65.124 40.8 C 64.982 40.435 64.905 40.039 64.905 39.625 C 64.905 37.828 66.363 36.37 68.159 36.37 C 69.67 36.37 70.942 37.401 71.308 38.798 L 77.679 55.256 C 82.162 55.453 85.809 58.896 86.323 63.291 L 117.787 71.261 L 117.779 71.294 C 119.189 71.651 120.234 72.929 120.234 74.45 C 120.234 76.246 118.776 77.704 116.979 77.704 C 116.535 77.704 116.112 77.615 115.726 77.454 Z " fill="rgb(255,255,255)"/></g><path d=" M 47.329 196.5 L 91.593 184.783 L 76.296 127.826 L 95.173 121.968 Q 130.486 110.17 137.809 75.752 Q 141.389 53.132 132.602 36.695 C 127.538 27.223 116.247 12.285 99.73 7.078 C 83.212 1.87 69.217 2.765 55.466 7.078 L 15.759 17.818 C 14.783 18.469 9.168 19.69 6.32 24.653 C 3.923 28.831 3.31 31.651 4.693 36.695 L 47.329 196.5 Z " fill="transparent" vector-effect="non-scaling-stroke" stroke-width="1" stroke="rgb(0,0,0)" stroke-linejoin="miter" stroke-linecap="square" stroke-miterlimit="3"/></g></svg>