<?xml version="1.0" encoding="UTF-8" standalone="no"?><!-- Generator: Gravit.io --><svg xmlns="http://www.w3.org/2000/svg" xmlns:xlink="http://www.w3.org/1999/xlink" style="isolation:isolate" viewBox="0 0 645 200" width="645pt" height="200pt"><g><path d=" M 234.501 114.67 L 207.273 114.67 L 207.273 163.607 L 184.388 163.607 L 184.388 31.902 L 234.772 31.902 L 234.772 31.902 Q 256.843 31.902 269.824 43.39 L 269.824 43.39 L 269.824 43.39 Q 282.805 54.878 282.805 73.784 L 282.805 73.784 L 282.805 73.784 Q 282.805 93.141 270.095 103.906 L 270.095 103.906 L 270.095 103.906 Q 257.386 114.67 234.501 114.67 L 234.501 114.67 L 234.501 114.67 Z  M 207.273 50.355 L 207.273 96.307 L 234.772 96.307 L 234.772 96.307 Q 246.984 96.307 253.406 90.563 L 253.406 90.563 L 253.406 90.563 Q 259.829 84.819 259.829 73.964 L 259.829 73.964 L 259.829 73.964 Q 259.829 63.291 253.316 56.913 L 253.316 56.913 L 253.316 56.913 Q 246.803 50.536 235.405 50.355 L 235.405 50.355 L 207.273 50.355 L 207.273 50.355 Z  M 352.004 65.19 L 351.914 85.814 L 351.914 85.814 Q 347.572 85.091 342.958 85.091 L 342.958 85.091 L 342.958 85.091 Q 327.852 85.091 322.606 96.669 L 322.606 96.669 L 322.606 163.607 L 300.625 163.607 L 300.625 65.733 L 321.611 65.733 L 322.153 76.678 L 322.153 76.678 Q 330.113 63.924 344.225 63.924 L 344.225 63.924 L 344.225 63.924 Q 348.929 63.924 352.004 65.19 L 352.004 65.19 L 352.004 65.19 Z  M 407.183 165.416 L 407.183 165.416 L 407.183 165.416 Q 386.287 165.416 373.307 152.255 L 373.307 152.255 L 373.307 152.255 Q 360.326 139.093 360.326 117.203 L 360.326 117.203 L 360.326 114.489 L 360.326 114.489 Q 360.326 99.835 365.98 88.302 L 365.98 88.302 L 365.98 88.302 Q 371.633 76.769 381.855 70.346 L 381.855 70.346 L 381.855 70.346 Q 392.076 63.924 404.65 63.924 L 404.65 63.924 L 404.65 63.924 Q 424.641 63.924 435.541 76.678 L 435.541 76.678 L 435.541 76.678 Q 446.441 89.433 446.441 112.77 L 446.441 112.77 L 446.441 121.635 L 382.488 121.635 L 382.488 121.635 Q 383.483 133.756 390.584 140.812 L 390.584 140.812 L 390.584 140.812 Q 397.685 147.868 408.449 147.868 L 408.449 147.868 L 408.449 147.868 Q 423.555 147.868 433.053 135.656 L 433.053 135.656 L 444.903 146.963 L 444.903 146.963 Q 439.023 155.737 429.209 160.577 L 429.209 160.577 L 429.209 160.577 Q 419.394 165.416 407.183 165.416 Z  M 404.559 81.563 L 404.559 81.563 L 404.559 81.563 Q 395.514 81.563 389.951 87.895 L 389.951 87.895 L 389.951 87.895 Q 384.388 94.227 382.85 105.534 L 382.85 105.534 L 424.731 105.534 L 424.731 103.906 L 424.731 103.906 Q 424.008 92.87 418.852 87.216 L 418.852 87.216 L 418.852 87.216 Q 413.696 81.563 404.559 81.563 Z  M 549.2 114.308 L 549.2 115.665 L 549.2 115.665 Q 549.2 138.37 538.888 151.893 L 538.888 151.893 L 538.888 151.893 Q 528.576 165.416 511.208 165.416 L 511.208 165.416 L 511.208 165.416 Q 495.107 165.416 485.428 154.833 L 485.428 154.833 L 485.428 201.237 L 463.447 201.237 L 463.447 65.733 L 483.709 65.733 L 484.614 75.683 L 484.614 75.683 Q 494.293 63.924 510.937 63.924 L 510.937 63.924 L 510.937 63.924 Q 528.847 63.924 539.023 77.266 L 539.023 77.266 L 539.023 77.266 Q 549.2 90.608 549.2 114.308 L 549.2 114.308 L 549.2 114.308 Z  M 527.309 113.765 L 527.309 113.765 L 527.309 113.765 Q 527.309 99.111 521.475 90.518 L 521.475 90.518 L 521.475 90.518 Q 515.64 81.925 504.786 81.925 L 504.786 81.925 L 504.786 81.925 Q 491.308 81.925 485.428 93.051 L 485.428 93.051 L 485.428 136.47 L 485.428 136.47 Q 491.398 147.868 504.966 147.868 L 504.966 147.868 L 504.966 147.868 Q 515.459 147.868 521.384 139.41 L 521.384 139.41 L 521.384 139.41 Q 527.309 130.952 527.309 113.765 Z  M 581.493 140.45 L 581.493 140.45 L 581.493 140.45 Q 587.644 140.45 590.991 143.933 L 590.991 143.933 L 590.991 143.933 Q 594.338 147.415 594.338 152.662 L 594.338 152.662 L 594.338 152.662 Q 594.338 157.818 590.991 161.21 L 590.991 161.21 L 590.991 161.21 Q 587.644 164.602 581.493 164.602 L 581.493 164.602 L 581.493 164.602 Q 575.613 164.602 572.176 161.255 L 572.176 161.255 L 572.176 161.255 Q 568.739 157.908 568.739 152.662 L 568.739 152.662 L 568.739 152.662 Q 568.739 147.415 572.085 143.933 L 572.085 143.933 L 572.085 143.933 Q 575.432 140.45 581.493 140.45 Z " fill="rgb(49,27,73)"/><path d=" M 44.639 200 L 90.204 187.939 L 74.457 129.307 L 93.889 123.277 Q 130.241 111.132 137.779 75.702 Q 141.464 52.417 132.418 35.497 C 127.205 25.747 115.583 10.37 98.58 5.009 C 81.577 -0.351 67.17 0.57 53.015 5.009 L 12.14 16.065 C 11.135 16.735 5.356 17.992 2.424 23.101 C -0.043 27.402 -0.675 30.304 0.749 35.497 L 44.639 200 Z " fill="rgb(49,27,73)"/><clipPath id="_clipPath_u2GGOS9BraQCZIZgrRbUvSJKZn4kUCY2"><path d=" M 44.639 200 L 90.204 187.939 L 74.457 129.307 L 93.889 123.277 Q 130.241 111.132 137.779 75.702 Q 141.464 52.417 132.418 35.497 C 127.205 25.747 115.583 10.37 98.58 5.009 C 81.577 -0.351 67.17 0.57 53.015 5.009 L 12.14 16.065 C 11.135 16.735 5.356 17.992 2.424 23.101 C -0.043 27.402 -0.675 30.304 0.749 35.497 L 44.639 200 Z " fill="rgb(49,27,73)"/></clipPath><g clip-path="url(#_clipPath_u2GGOS9BraQCZIZgrRbUvSJKZn4kUCY2)"><path d=" M 115.047 77.454 L 83.136 69.371 C 81.437 71.781 78.632 73.357 75.462 73.357 C 70.285 73.357 66.081 69.153 66.081 63.976 C 66.081 61.054 67.419 58.443 69.515 56.722 L 62.938 39.73 L 62.956 39.722 C 62.811 39.347 62.731 38.939 62.731 38.513 C 62.731 36.664 64.232 35.162 66.081 35.162 C 67.636 35.162 68.945 36.224 69.322 37.662 L 75.88 54.604 C 80.496 54.807 84.249 58.351 84.779 62.875 L 117.168 71.079 L 117.159 71.113 C 118.611 71.48 119.687 72.796 119.687 74.362 C 119.687 76.211 118.186 77.712 116.337 77.712 C 115.88 77.712 115.444 77.62 115.047 77.454 Z " fill="rgb(255,255,255)"/></g></g></svg>